<?xml version="1.0"?>
<svg xmlns="http://www.w3.org/2000/svg" xmlns:xlink="http://www.w3.org/1999/xlink" xmlns:svgjs="http://svgjs.com/svgjs" version="1.1" width="512" height="512" x="0" y="0" viewBox="0 0 512 512" style="enable-background:new 0 0 512 512" xml:space="preserve" class=""><g>
<g xmlns="http://www.w3.org/2000/svg">
	<g>
		<path d="M297.974,297.089c-2.559,2.093-3.637,5.636-2.666,8.797c1.059,3.451,4.305,5.867,7.92,5.867    c4.112,0,7.711-3.163,8.2-7.257C312.297,297.225,303.637,292.457,297.974,297.089z" fill="#a6f7e4" data-original="#000000" style="" class=""/>
	</g>
</g>
<g xmlns="http://www.w3.org/2000/svg">
	<g>
		<path d="M196.931,295.528c-2.946-1.637-6.68-1.315-9.291,0.821c-2.788,2.281-3.773,6.246-2.391,9.567    c1.271,3.054,4.333,5.108,7.646,5.108c3.833,0,7.215-2.744,8.063-6.467C201.76,301.042,200.081,297.28,196.931,295.528z" fill="#a6f7e4" data-original="#000000" style="" class=""/>
	</g>
</g>
<g xmlns="http://www.w3.org/2000/svg">
	<g>
		<path d="M231.585,314.441c-2.949-2.1-6.947-2.072-9.852,0.097c-2.788,2.081-3.972,5.897-2.86,9.191    c1.131,3.347,4.297,5.677,7.849,5.677c3.683,0.001,6.984-2.522,7.975-6.063C235.61,320.082,234.354,316.412,231.585,314.441z" fill="#a6f7e4" data-original="#000000" style="" class=""/>
	</g>
</g>
<g xmlns="http://www.w3.org/2000/svg">
	<g>
		<path d="M191.802,388.662c-2.761,1.932-4.087,5.507-3.26,8.774c0.919,3.635,4.268,6.269,8.028,6.269    c3.83-0.001,7.222-2.738,8.065-6.467C206.271,390.004,197.864,384.417,191.802,388.662z" fill="#a6f7e4" data-original="#000000" style="" class=""/>
	</g>
</g>
<g xmlns="http://www.w3.org/2000/svg">
	<g>
		<path d="M258.38,367.596c-2.762,2.16-3.855,5.994-2.666,9.286c1.175,3.253,4.317,5.485,7.782,5.485    c3.989,0,7.453-2.935,8.156-6.854C272.973,368.162,264.2,363.043,258.38,367.596z" fill="#a6f7e4" data-original="#000000" style="" class=""/>
	</g>
</g>
<g xmlns="http://www.w3.org/2000/svg">
	<g>
		<path d="M209.816,417.122c-2.941-1.867-6.809-1.642-9.546,0.494c-2.773,2.163-3.829,5.981-2.662,9.282    c1.149,3.253,4.34,5.491,7.788,5.491c3.845,0,7.208-2.743,8.063-6.467C214.233,422.553,212.725,418.97,209.816,417.122z" fill="#a6f7e4" data-original="#000000" style="" class=""/>
	</g>
</g>
<g xmlns="http://www.w3.org/2000/svg">
	<g>
		<path d="M300.006,411.678c-2.972,2.114-4.227,6.087-2.982,9.522c1.175,3.245,4.324,5.487,7.782,5.487    c3.749,0,7.094-2.617,8.018-6.244C314.692,413.106,306.125,407.328,300.006,411.678z" fill="#a6f7e4" data-original="#000000" style="" class=""/>
	</g>
</g>
<g xmlns="http://www.w3.org/2000/svg">
	<g>
		<path d="M376.615,159.457c0.137-1.053,0.197-2.073,0.197-3.054v-51.99c0-0.003-0.001-0.005-0.001-0.009    c-0.003-14.212-12.785-26.709-36.201-35.62l9.12-35.738c1.754-6.852,0.733-13.976-2.876-20.062    c-3.611-6.089-9.378-10.405-16.234-12.153c-6.849-1.747-13.971-0.722-20.054,2.888c-6.085,3.611-10.397,9.374-12.142,16.223    l-9.538,37.373c-10.607-1.134-21.629-1.718-32.877-1.718c-30.99,0-60.246,4.39-82.38,12.363    c-31.766,11.442-38.434,26.136-38.434,36.448c0,0.015,0.001,0.031,0.001,0.046v51.948c0,0.981,0.062,2,0.198,3.054    c-21.793,12.076-26.613,25.223-26.613,34.465v42.257c0,4.57,3.704,8.275,8.275,8.275c4.571,0,8.275-3.705,8.275-8.275v-14.272    c5.246,3.992,12.042,7.959,20.819,11.737c1.067,0.459,2.176,0.676,3.267,0.676c3.206,0,6.258-1.875,7.606-5.006    c1.806-4.198-0.132-9.066-4.331-10.872c-17.13-7.371-27.357-16.537-27.357-24.517c0-0.012-0.002-0.024-0.002-0.038    c0.022-6.288,6.255-13.229,17.317-19.519c5.657,6.342,15.23,12.815,30.978,18.488c20.973,7.557,48.348,11.889,77.531,12.322    l-15.1,59.202c-51.696,2.798-101.897,16.934-101.9,43.169v0.001v106.421c0,23.502,15.074,43.853,37.518,50.645l0.653,0.195    c23.285,6.949,53.003,10.776,83.682,10.776c30.678,0,60.395-3.827,83.681-10.777l0.651-0.195    c22.435-6.789,37.509-27.14,37.509-50.642v-42.088c0-4.57-3.704-8.275-8.275-8.275s-8.275,3.705-8.275,8.275v42.088    c0,16.155-10.349,30.141-25.758,34.802l-0.589,0.177c-21.787,6.503-49.823,10.084-78.943,10.084    c-29.12,0-57.159-3.581-78.95-10.084l-0.6-0.18c-15.404-4.662-25.753-18.647-25.753-34.801V330.84    c1.292,0.786,2.674,1.566,4.165,2.337c11.066,5.727,26.598,10.422,44.913,13.578c0.476,0.082,0.948,0.121,1.414,0.121    c3.953,0,7.451-2.843,8.145-6.872c0.777-4.504-2.245-8.784-6.749-9.56c-35.79-6.165-51.888-17.098-51.888-22.891    c0-3.691,7.313-10.214,23.371-15.811c15.246-5.315,35.429-8.968,57.682-10.511l-1.053,4.128    c-2.034,7.979-0.302,16.285,4.75,22.787c5.052,6.502,12.673,10.231,20.908,10.231c12.112,0,22.662-8.197,25.657-19.933    l4.272-16.743c52.255,4.559,75.006,19.082,75.006,25.852c0,9.219-37.168,27.164-105.3,27.164c-8.449,0-16.867-0.298-25.019-0.884    c-4.574-0.328-8.519,3.102-8.848,7.66c-0.329,4.559,3.101,8.519,7.659,8.848c8.545,0.615,17.362,0.927,26.206,0.927    c31.149,0,60.546-3.82,82.774-10.755c9.608-2.998,16.942-6.291,22.527-9.687v13.48c0,4.57,3.704,8.275,8.275,8.275    s8.275-3.705,8.275-8.275v-36.754v-0.001c-0.002-24.899-45.072-37.92-87.416-42.081l16.454-64.489    c11.497-2.029,22.138-4.752,31.496-8.124c15.748-5.673,25.321-12.146,30.977-18.488c11.064,6.289,17.297,13.233,17.313,19.528    c0,0.01-0.001,0.019-0.001,0.029c0,8.69-13.116,22.346-50.081,32.23c-4.416,1.181-7.037,5.716-5.857,10.132    c0.989,3.699,4.334,6.139,7.988,6.139c0.708,0,1.428-0.092,2.143-0.284c19.837-5.305,35.255-12.165,45.809-20.192v231.704    c0,9.205-13.497,19.788-35.226,27.618c-25.365,9.141-59.261,14.176-95.441,14.176s-70.079-5.034-95.448-14.176    c-21.731-7.83-35.231-18.412-35.231-27.617V263.762c0-4.57-3.704-8.275-8.275-8.275s-8.275,3.705-8.275,8.275v189.894    c0,37.896,75.856,58.344,147.228,58.344c71.368,0,147.217-20.448,147.217-58.344V193.921    C403.225,184.675,398.405,171.526,376.615,159.457z M360.261,104.408c0,1.492-0.542,2.958-1.356,4.325    c-6.782-4.387-15.415-8.293-25.541-11.552l3.127-12.252C353.859,91.838,360.261,99.506,360.261,104.408z M345.239,119.889    c-5.413,2.866-12.046,5.488-19.65,7.764l3.676-14.407C335.321,115.245,340.707,117.489,345.239,119.889z M314.459,24.033    c0.654-2.567,2.272-4.728,4.552-6.082c2.281-1.354,4.948-1.738,7.518-1.083c2.572,0.655,4.733,2.274,6.089,4.558    c1.353,2.281,1.736,4.95,1.078,7.52l-1.24,4.858c-8.717,9.573-17.9,14.677-24.929,17.384L314.459,24.033z M302.779,69.798    c5.369-1.146,13.68-3.669,22.827-9.143L321.817,75.5c-8.719,9.575-17.903,14.679-24.931,17.387L302.779,69.798z M292.136,111.497    c5.37-1.146,13.681-3.67,22.829-9.144l-3.781,14.82c-8.651,9.51-17.837,14.63-24.927,17.363L292.136,111.497z M179.236,83.531    c20.381-7.34,47.645-11.383,76.772-11.383c9.822,0,19.452,0.46,28.742,1.37l-16.052,62.895c-4.187,0.173-8.432,0.268-12.689,0.268    c-40.74,0-71.946-7.724-89.182-16.806c17.231-9.085,48.436-16.813,89.182-16.813c4.571,0,8.275-3.705,8.275-8.275    c0-4.57-3.704-8.275-8.275-8.275c-42.723,0-81.692,8.573-102.901,22.233c-0.819-1.369-1.364-2.84-1.364-4.337    C151.743,99.103,158.966,90.832,179.236,83.531z M272.019,270.698c-0.001,0.006-0.003,0.011-0.004,0.018l-6.032,23.639    c-1.123,4.399-5.079,7.473-9.62,7.473c-3.088,0-5.946-1.398-7.839-3.836c-1.893-2.438-2.544-5.552-1.781-8.544l2.843-11.147    c5.369-1.146,13.68-3.67,22.827-9.145L272.019,270.698z M279.264,242.3c-8.719,9.576-17.903,14.681-24.932,17.39l5.89-23.089    c5.369-1.146,13.682-3.67,22.83-9.147L279.264,242.3z M264.969,217.99l3.318-13.006c6.329-0.241,12.545-0.672,18.613-1.277    C279.111,211.31,271.195,215.592,264.969,217.99z M360.262,156.403c0,5.308-7.222,13.582-27.49,20.885    c-20.378,7.343-47.642,11.385-76.768,11.385c-63.644,0-104.259-19.113-104.259-32.27v-26.298    c20.874,14.179,60.61,23.126,104.263,23.126c6.645,0,13.277-0.202,19.711-0.6c14.273-0.886,27.786-2.704,40.163-5.404    c0.14-0.031,0.279-0.065,0.416-0.102c18.578-4.08,33.586-9.906,43.964-17V156.403z" fill="#a6f7e4" data-original="#000000" style="" class=""/>
	</g>
</g>
<g xmlns="http://www.w3.org/2000/svg">
</g>
<g xmlns="http://www.w3.org/2000/svg">
</g>
<g xmlns="http://www.w3.org/2000/svg">
</g>
<g xmlns="http://www.w3.org/2000/svg">
</g>
<g xmlns="http://www.w3.org/2000/svg">
</g>
<g xmlns="http://www.w3.org/2000/svg">
</g>
<g xmlns="http://www.w3.org/2000/svg">
</g>
<g xmlns="http://www.w3.org/2000/svg">
</g>
<g xmlns="http://www.w3.org/2000/svg">
</g>
<g xmlns="http://www.w3.org/2000/svg">
</g>
<g xmlns="http://www.w3.org/2000/svg">
</g>
<g xmlns="http://www.w3.org/2000/svg">
</g>
<g xmlns="http://www.w3.org/2000/svg">
</g>
<g xmlns="http://www.w3.org/2000/svg">
</g>
<g xmlns="http://www.w3.org/2000/svg">
</g>
</g></svg>
