<svg height="512" viewBox="0 0 60 60" width="512" xmlns="http://www.w3.org/2000/svg"><g id="Page-1" fill="none" fill-rule="evenodd"><g id="010---Meal-Time" fill="rgb(0,0,0)" fill-rule="nonzero" transform="translate(-1)"><path id="Shape" d="m31 60c5.4509467.0048416 10.7995873-1.4799698 15.468-4.294.4727557-.2858074.6243073-.9007443.3385-1.3735-.2858074-.4727557-.9007443-.6243073-1.3735-.3385-9.1168221 5.4719881-20.5463658 5.3079005-29.5023464-.4235487-8.95598061-5.7314492-13.8927754-16.0411267-12.74303103-26.6117079 1.14974438-10.5705812 8.18760513-19.57779553 18.16637743-23.2497434.5185954-.1902621.7847621-.76490462.5945-1.2835s-.7649046-.7847621-1.2835-.5945c-13.66160545 5.00518122-21.76237769 19.0917069-19.21717952 33.4169737s15.00256612 24.7591875 29.55217952 24.7520263z"/><path id="Shape" d="m40.646 3.709c7.8987606 2.9021094 14.0746949 9.2009813 16.8205732 17.1554021s1.7708434 16.7218183-2.6555732 23.8785979c-.188279.3036758-.2002468.6847294-.0313954.9996216s.4928696.5157835.85.527.6931164-.1689458.8813954-.4726216c4.7438211-7.6677651 5.7892788-17.061914 2.8473099-25.5850166-2.941969-8.5231027-9.5596569-15.27211898-18.0233099-18.3809834-.5185954-.1902621-1.0932379.07590462-1.2835.5945s.0759046 1.0932379.5945 1.2835z"/><path id="Shape" d="m27 18.58v8.451c-1.060765 1.4025923-1.2990128 3.2622024-.6260964 4.8869088s2.1562548 2.7712747 3.8980964 3.0130912l7.793 7.793.006.009 14.142 14.137c.375096.375248.8839266.5860729 1.4145.5860729s1.039404-.2108249 1.4145-.5860729c3.132-3.133 1.281-7.2-7.071-15.556l-4.243-4.243h-.007l-7.795-7.8c-.1185064-.8118015-.4366887-1.5814865-.926-2.24v-8.453c1.8232449-.7914578 3.0020947-2.5903825 3-4.578v-11c.0055929-.79634152-.3132016-1.56065401-.883-2.117-.0473825-.05114089-.0988894-.09829972-.154-.141-1.1362516-1.00329194-2.8467134-.98645924-3.963.039-.5529208-.510633-1.2804148-.79010808-2.033-.781-.7297286.01595623-1.4296296.29265305-1.973.78-1.1060422-1.01760018-2.7999474-1.04213705-3.935-.057-.6738764.56388159-1.0619658 1.3983288-1.059 2.277v11c-.0028927 1.9883434 1.1760879 3.7882537 3 4.58zm11.78 22.02-5.961-5.96c1.2938881-.508197 2.317803-1.5321119 2.826-2.826l5.955 5.966zm-5.78-15.176c-1.2734085-.565331-2.7265915-.565331-4 0v-6.424h4zm-5 4.576c0-1.6568542 1.3431458-3 3-3s3 1.3431458 3 3-1.3431458 3-3 3-3-1.3431458-3-3zm25.627 25.456-13.434-13.435 2.828-2.828 3.536 3.535c9.899 9.899 8.129 11.672 7.07 12.728zm-27.627-52.456c.0026257-.29512177.1354827-.57401167.363-.762.3970109-.33838944.9890019-.30857063 1.35.068.1854514.18309032.2889672.4334037.287.694v8c0 .5522847.4477153 1 1 1s1-.4477153 1-1v-8c.0077008-.52212725.4088516-.95393651.929-1h.165c.5128122.0535412.9031776.4844081.906 1v8c0 .5522847.4477153.9999999 1 .9999999s1-.4477152 1-.9999999v-8c0-.55228475.4477153-1 1-1s1 .44771525 1 1v11c.0007384 1.3756601-.9360523 2.5748017-2.271 2.907-.2374602.0649138-.482848.0962184-.729.093h-4c-.2547822.0022381-.5086094-.031426-.754-.1-1.3239334-.3390293-2.2489142-1.5333501-2.246-2.9z"/><path id="Shape" d="m21.909 7.774c-.2298853-.50188174-.822966-.72255251-1.325-.493-.687.314-1.348.667-2 1.038-.029.014-.06.014-.088.03s-.051.05-.081.071c-3.7138271 2.1714284-6.8044684 5.2644807-8.973 8.98-.03311068.0309992-.06386268.0644253-.092.1-.01615606.0379772-.02952476.0770806-.04.117-4.42052093 7.6869062-4.41290044 17.1462262.02 24.826.01.018.009.039.02.057s.036.045.053.069c2.1878191 3.7430211 5.3055626 6.85732 9.051 9.041.017.012.027.03.046.041.0283784.0134504.057415.0254655.087.036 7.4524318 4.2799551 16.5833533 4.4216516 24.165.375.3246243-.1631678.5352091-.489569.5500667-.8525895.0148577-.3630206-.1683498-.7055388-.4785544-.8946888-.3102047-.18915-.6985956-.1951688-1.0145123-.0157217-3.0290611 1.6118238-6.3808918 2.5241888-9.809 2.67v-1.969c0-.5522847-.4477153-1-1-1s-1 .4477153-1 1v1.975c-3.3573514-.1426222-6.6418273-1.0246059-9.619-2.583l.985-1.705c.1814844-.3095704.1831833-.6926495.0044519-1.0038174-.1787315-.311168-.5104885-.5027136-.8693336-.5019247s-.6897567.1937913-.8671183.5057421l-.983 1.7c-2.8289556-1.8089591-5.2310409-4.2110444-7.04-7.04l1.7-.983c.3119508-.1773616.5049532-.5082732.5057421-.8671183s-.1907567-.6906021-.5019247-.8693336c-.3111679-.1787314-.694247-.1770325-1.0038174.0044519l-1.7.985c-1.55915328-2.9763252-2.44215638-6.2600997-2.586-9.617h1.975c.5522847 0 1-.4477153 1-1s-.4477153-1-1-1h-1.963c.14663634-3.3545075 1.02841892-6.6358447 2.583-9.612l1.693.978c.3095704.1814844.6926495.1831833 1.0038174.0044519.311168-.1787315.5027136-.5104885.5019247-.8693336s-.1937913-.6897567-.5057421-.8671183l-1.7-.982c1.8041691-2.8323329 4.2059493-5.2358196 7.037-7.042l.984 1.7c.1773616.3119508.5082732.5049532.8671183.5057421s.6906021-.1907567.8693336-.5019247c.1787314-.3111679.1770325-.694247-.0044519-1.0038174l-.979-1.7c.34-.177.678-.357 1.029-.518.4979386-.22982283.7178752-.81780749.493-1.318z"/><path id="Shape" d="m51.685 42.18c.2333898.1259812.507267.1540872.7613797.0781346.2541128-.0759525.4676449-.2497416.5936203-.4831346 4.067716-7.5716332 3.9353576-16.7073858-.35-24.158-.0104752-.0399194-.0238439-.0790228-.04-.117-.027783-.0355679-.0582022-.0689955-.091-.1-2.1700998-3.716004-5.2624794-6.8090725-8.978-8.98-.03-.021-.049-.052-.081-.071-.0288195-.01116126-.0581912-.02084058-.088-.029-.648-.372-1.309-.725-2-1.039-.4973717-.20418962-1.067176.02144191-1.2899223.5107844-.2227463.4893425-.0186989 1.06722756.4619223 1.3082156.351.161.689.341 1.029.518l-.979 1.7c-.1814844.3095704-.1831833.6926495-.0044519 1.0038174.1787315.311168.5104885.5027136.8693336.5019247s.6897567-.1937913.8671183-.5057421l.984-1.7c2.8310507 1.8061804 5.2328309 4.2096671 7.037 7.042l-1.7.982c-.3119508.1773616-.5049532.5082732-.5057421.8671183s.1907567.6906021.5019247.8693336c.3111679.1787314.694247.1770325 1.0038174-.0044519l1.693-.978c1.5534524 2.9737326 2.4352019 6.252216 2.583 9.604h-1.963c-.5522847 0-1 .4477153-1 1s.4477153 1 1 1h1.969c-.1436425 3.4359235-1.0629322 6.7948008-2.689 9.825-.1259812.2333898-.1540872.507267-.0781346.7613797.0759525.2541128.2497416.4676449.4831346.5936203z"/></g></g></svg>