<svg height="512" viewBox="0 0 58 58" width="512" xmlns="http://www.w3.org/2000/svg"><g id="Page-1" fill="none" fill-rule="evenodd"><g id="025---Vegan-Burger" fill-rule="nonzero"><path id="Shape" d="m26 24h-8c-7.7319865 0-14 6.2680135-14 14-1.06127285-.0013291-2.07946091.4196715-2.82989472 1.1701053-.75043382.7504338-1.17143436 1.7686219-1.17010528 2.8298947-.00083499 1.5921606.9470549 3.0316946 2.41 3.66.34155173 1.0829458.88063517 2.0933035 1.59 2.98v1.36c0 4.418278 3.581722 8 8 8h34c4.418278 0 8-3.581722 8-8v-1.36c.7093648-.8866965 1.2484483-1.8970542 1.59-2.98.4647081-.1909056.8863697-.4731468 1.24-.83 1.1453208-1.1440463 1.4881603-2.8656305.8684897-4.3611605-.6196705-1.49553-2.079663-2.4701135-3.6984897-2.4688395 0-7.7319865-6.2680135-14-14-14z" fill="#f29c1f"/><path id="Shape" d="m58 42c-.0018942 1.0606427-.4223608 2.0776689-1.17 2.83-.3536303.3568532-.7752919.6390944-1.24.83-.4996842.2254391-1.0418165.3413667-1.59.34h-50c-.54818353.0013667-1.09031581-.1145609-1.59-.34-1.4629451-.6283054-2.41083499-2.0678394-2.41-3.66-.00132908-1.0612728.41967146-2.0794609 1.17010528-2.8298947.75043381-.7504338 1.76862187-1.1714344 2.82989472-1.1701053h50c2.209139 0 4 1.790861 4 4z" fill="#805333"/><g fill="#f9eab0"><circle id="Oval" cx="16" cy="34" r="1"/><circle id="Oval" cx="20" cy="31" r="1"/><circle id="Oval" cx="32" cy="34" r="1"/><circle id="Oval" cx="40" cy="28" r="1"/><circle id="Oval" cx="36" cy="31" r="1"/><circle id="Oval" cx="24" cy="34" r="1"/><circle id="Oval" cx="28" cy="31" r="1"/><circle id="Oval" cx="40" cy="34" r="1"/><circle id="Oval" cx="48" cy="34" r="1"/><circle id="Oval" cx="44" cy="31" r="1"/><circle id="Oval" cx="36" cy="31" r="1"/></g><path id="Shape" d="m55.59 45.66c-.3415517 1.0829458-.8806352 2.0933035-1.59 2.98-1.665341 2.0942449-4.1845175 3.3281273-6.86 3.36h-.14c-2.94 0-3.96-.85-5.56-1.44l4.56-4.56h8c.5481835.0013667 1.0903158-.1145609 1.59-.34z" fill="#24ae5f"/><path id="Shape" d="m34.56 50.56c-1.61.59-2.63 1.44-5.57 1.44-4.5 0-4.5-2-9-2s-4.5 2-8.99 2h-.14c-2.67548251-.0318727-5.19465896-1.2657551-6.86-3.36-.70936483-.8866965-1.24844827-1.8970542-1.59-2.98.49968419.2254391 1.04181647.3413667 1.59.34h26z" fill="#24ae5f"/><path id="Shape" d="m46 46-7.29 7.29c-.3930079.3899779-1.0269921.3899779-1.42 0l-7.29-7.29z" fill="#f3d55b"/><path id="Rectangle-path" d="m26 16h6v12h-6z" fill="#a56a43"/><path id="Shape" d="m34 29h-10c-.5522847 0-1-.4477153-1-1s.4477153-1 1-1h10c.5522847 0 1 .4477153 1 1s-.4477153 1-1 1z" fill="#d25627"/><path id="Shape" d="m8.831 35c-.3372263-.0001737-.65165223-.1703015-.83628602-.4524929-.18463379-.2821913-.21460456-.6384341-.07971398-.9475071 1.75230201-4.0078762 5.7107993-6.5984644 10.085-6.6.5522847 0 1 .4477153 1 1s-.4477153 1-1 1c-3.579045.0012634-6.8179988 2.120792-8.252 5.4-.15911923.3645881-.51920185.6001929-.917.6z" fill="#fff"/><rect id="Rectangle-path" fill="#7ed09e" height="18" rx="2" width="58"/><path id="Shape" d="m12.372 3.071c-.2462521-.09854514-.5215667-.09522227-.7653686.00923748-.243802.10445976-.4361169.30149818-.5346314.54776252l-3.072 7.68-3.071-7.68c-.20544994-.51307252-.78792747-.7624499-1.30099999-.55699998-.51307252.20544993-.76244992.78792745-.55700001 1.30099998l4 10c.15151782.3803506.51958059.6299203.929.6299203s.77748218-.2495697.929-.6299203l4-10c.0988577-.2463696.0956981-.52193658-.0087825-.76597473-.1044806-.24403816-.3017073-.43651879-.5482175-.53502527z" fill="#fff"/><path id="Shape" d="m21 5c.5522847 0 1-.44771525 1-1s-.4477153-1-1-1h-6c-.5522847 0-1 .44771525-1 1v10c0 .5522847.4477153 1 1 1h6c.5522847 0 1-.4477153 1-1s-.4477153-1-1-1h-5v-3h5c.5522847 0 1-.44771525 1-1s-.4477153-1-1-1h-5v-3z" fill="#fff"/><path id="Shape" d="m34 9h-4c-.5522847 0-1 .44771525-1 1 0 .5522847.4477153 1 1 1h1c0 1.1045695-.8954305 2-2 2h-1c-1.1045695 0-2-.8954305-2-2v-4c0-1.1045695.8954305-2 2-2h1c.8431967-.00475838 1.5962199.52685838 1.874 1.323.1890143.50752921.7477123.77235144 1.2602435.59735401s.7926049-.7262079.6317565-1.24335401c-.5535367-1.60598709-2.0673028-2.68202315-3.766-2.677h-1c-2.209139 0-4 1.790861-4 4v4c0 2.209139 1.790861 4 4 4h1c2.209139 0 4-1.790861 4-4h1c.5522847 0 1-.4477153 1-1 0-.55228475-.4477153-1-1-1z" fill="#fff"/><path id="Shape" d="m40.929 3.628c-.1515178-.38035063-.5195806-.62992028-.929-.62992028s-.7774822.24956965-.929.62992028l-4 10c-.2054499.5130725.0439275 1.09555.557 1.301.5130725.2054499 1.0955501-.0439275 1.301-.557l.948-2.372h4.246l.948 2.372c.1521275.3795963.520055.6283137.929.628.1273562-.0001189.2535525-.0242047.372-.071.2462643-.0985145.4433028-.2908294.5477625-.5346314.1044598-.2438019.1077826-.5191165.0092375-.7653686zm-2.252 6.372 1.323-3.308 1.323 3.308z" fill="#fff"/><path id="Shape" d="m54 3c-.5522847 0-1 .44771525-1 1v6.828l-5.181-7.4c-.2502106-.35713846-.7029949-.51096482-1.1189782-.38015533s-.6992407.51609038-.7000218.95215533v10c0 .5522847.4477153 1 1 1s1-.4477153 1-1v-6.828l5.181 7.4c.1867585.267814.492499.4275905.819.428.5522847 0 1-.4477153 1-1v-10c0-.55228475-.4477153-1-1-1z" fill="#fff"/><path id="Shape" d="m58 42c-.0018942 1.0606427-.4223608 2.0776689-1.17 2.83-.3536303.3568532-.7752919.6390944-1.24.83-.4996842.2254391-1.0418165.3413667-1.59.34h-50c-.54818353.0013667-1.09031581-.1145609-1.59-.34-1.4629451-.6283054-2.41083499-2.0678394-2.41-3.66-.00305328-.3377372.04069588-.6742693.13-1 .30775729 1.1915426 1.14954427 2.1736275 2.28 2.66.49968419.2254391 1.04181647.3413667 1.59.34h50c.5481835.0013667 1.0903158-.1145609 1.59-.34.4647081-.1909056.8863697-.4731468 1.24-.83.500833-.5084818.8594456-1.1395019 1.04-1.83.0893041.3257307.1330533.6622628.13 1z" fill="#603e26"/></g></g></svg>